Coordinates
version=1
nRows=29
nColumns=24
inDegrees=yes

Units are S.I. units (second, meters, Newtons, ...)
Angles are in degrees.

endheader
time	pelvis_tilt	pelvis_list	pelvis_rotation	pelvis_tx	pelvis_ty	pelvis_tz	hip_flexion_r	hip_adduction_r	hip_rotation_r	knee_angle_r	ankle_angle_r	subtalar_angle_r	mtp_angle_r	hip_flexion_l	hip_adduction_l	hip_rotation_l	knee_angle_l	ankle_angle_l	subtalar_angle_l	mtp_angle_l	lumbar_extension	lumbar_bending	lumbar_rotation
      1.32900000	     -0.49373548	      0.63915036	      0.82154977	      0.21837516	      1.01303994	      0.32558245	     17.05255600	     -0.12861064	     -2.46275946	    -64.36003054	    -12.56493556	    -15.38354461	      5.80572057	      6.07993796	      4.89383840	      4.96481243	     -6.93677712	     -3.80698402	    -13.80181457	      4.57583228	     -3.32228711	      1.31920049	      1.94574649
      1.33316667	     -0.38969752	      0.53126421	      0.91862030	      0.22342532	      1.01372645	      0.32535148	     17.47523277	     -0.04279827	     -2.51073296	    -64.14383696	    -11.81351613	    -15.89130460	      5.24710453	      5.51499239	      4.78366283	      5.16311756	     -6.68455936	     -3.70972647	    -13.85680994	      4.33341035	     -3.46250461	      1.44386805	      1.75923601
      1.33733333	     -0.34569321	      0.44704618	      1.00417541	      0.22843315	      1.01423902	      0.32510507	     17.96900886	      0.00368973	     -2.54761549	    -63.91418653	    -10.97709446	    -16.10153503	      5.15687013	      5.05371760	      4.69955216	      5.28977895	     -6.51067443	     -3.50307079	    -13.83232576	      4.29447322	     -3.52265916	      1.55895791	      1.74081991
      1.34150000	     -0.25705920	      0.36375644	      1.08751912	      0.23345415	      1.01481088	      0.32490321	     18.39293166	      0.06407314	     -2.57342621	    -63.61964864	    -10.18692632	    -16.48960621	      4.96856557	      4.52439196	      4.60948178	      5.43001333	     -6.29452046	     -3.34661096	    -13.83846340	      4.21314782	     -3.64247451	      1.63419768	      1.62578672
      1.34566667	     -0.22505845	      0.24951087	      1.18218523	      0.23844632	      1.01530285	      0.32467786	     18.86493825	      0.15806535	     -2.60983957	    -63.26867319	     -9.38304578	    -16.77756485	      0.93146297	      4.06170795	      4.48932351	      5.61757165	     -6.08544090	     -3.20741497	    -13.89680245	      2.44938410	     -3.69065400	      1.79003888	      1.45605582
      1.34983333	     -0.14050231	      0.14370002	      1.29033813	      0.24343127	      1.01582013	      0.32443171	     19.25690815	      0.22644736	     -2.67073898	    -62.84756004	     -8.65449185	    -17.01669681	      0.92733915	      3.55923554	      4.37229701	      5.76987669	     -5.90924338	     -3.00043535	    -13.83211771	      2.45751586	     -3.81098568	      1.92247033	      1.45343324
      1.35400000	     -0.00776162	      0.06211509	      1.36239706	      0.24842134	      1.01636055	      0.32424973	     19.58928944	      0.28525458	     -2.69310716	    -62.39019767	     -7.95816794	    -17.41127487	      0.89175880	      2.98534722	      4.27355520	      5.86859981	     -5.69192680	     -2.82833412	    -13.79344518	      2.46174878	     -3.98010943	      2.01427333	      1.35284153
      1.35816667	      0.05301838	     -0.05182751	      1.46063984	      0.25339150	      1.01679621	      0.32404578	     19.97764043	      0.37491474	     -2.73480719	    -61.86275463	     -7.27502994	    -17.71629252	      0.85935863	      2.51261026	      4.14125540	      5.99343703	     -5.51639119	     -2.64646984	    -13.76067551	      2.46201810	     -4.06077527	      2.14802768	      1.28100111
      1.36233333	      0.14297281	     -0.14207181	      1.54726041	      0.25835031	      1.01722194	      0.32385141	     20.32528314	      0.43876841	     -2.76670808	    -61.30090406	     -6.61500359	    -18.01536265	      0.82167590	      2.00311170	      4.03149215	      6.10496574	     -5.32965273	     -2.46924821	    -13.71966933	      2.45897512	     -4.18372367	      2.25991365	      1.20143113
      1.36650000	      0.23942571	     -0.23275170	      1.62531106	      0.26329387	      1.01762735	      0.32368043	     20.65296074	      0.50840343	     -2.79018049	    -60.68963316	     -5.99810508	    -18.33740741	      0.76192249	      1.48131117	      3.91693031	      6.20550220	     -5.12735444	     -2.28476703	    -13.66355934	      2.45058355	     -4.32364769	      2.38072313	      1.10275427
      1.37066667	      0.28497944	     -0.33638926	      1.72348193	      0.26822661	      1.01792660	      0.32348962	     21.01572249	      0.58610104	     -2.82796824	    -60.02361060	     -5.39093490	    -18.56046115	      0.72621731	      1.03944399	      3.78997341	      6.31570250	     -4.97323474	     -2.09809524	    -13.61742057	      2.44592366	     -4.39282235	      2.50603899	      1.05383059
      1.37483333	      0.36970754	     -0.42125438	      1.80817706	      0.27315140	      1.01825932	      0.32332622	     21.32051233	      0.64814029	     -2.85367180	    -59.31106237	     -4.80502744	    -18.81664812	      0.67978795	      0.54558661	      3.67843470	      6.40140488	     -4.79681964	     -1.90763143	    -13.55401149	      2.43866192	     -4.51097243	      2.60979190	      0.97800683
      1.37900000	      0.48249970	     -0.50165870	      1.87917959	      0.27807833	      1.01859421	      0.32319394	     21.57931620	      0.71463321	     -2.86425197	    -58.54884152	     -4.29361564	    -19.11094307	      0.58594515	      0.01058656	      3.56632459	      6.46983857	     -4.59838527	     -1.70740740	    -13.46101294	      2.42144777	     -4.66995320	      2.71034857	      0.86418150
      1.38316667	      0.52291850	     -0.59258030	      1.97241775	      0.28298504	      1.01878754	      0.32302542	     21.89980016	      0.78020958	     -2.89591667	    -57.74204817	     -3.77685298	    -19.28523292	      0.53378801	     -0.41721700	      3.44808325	      6.55540749	     -4.45411933	     -1.51126987	    -13.40368207	      2.41326942	     -4.73508968	      2.82306440	      0.82098260
      1.38733333	      0.60943280	     -0.65110921	      2.04343990	      0.28789386	      1.01901040	      0.32290355	     22.15845415	      0.82079659	     -2.90453878	    -56.90039708	     -3.31632735	    -19.51990532	      0.42752521	     -0.91581514	      3.35810474	      6.61261643	     -4.26819168	     -1.30820934	    -13.30829010	      2.39390358	     -4.86525588	      2.89449542	      0.71485612
      1.39150000	      0.64426882	     -0.72716480	      2.13314636	      0.29278350	      1.01913279	      0.32276207	     22.45102361	      0.87452187	     -2.92640743	    -56.00194824	     -2.86711561	    -19.66068958	      0.36920044	     -1.33349593	      3.25270503	      6.69181607	     -4.12887449	     -1.11448407	    -13.25192042	      2.38523334	     -4.92508214	      2.99213735	      0.67686762
      1.39566667	      0.69015785	     -0.80216670	      2.21626391	      0.29767795	      1.01923748	      0.32263728	     22.71493844	      0.92929280	     -2.94888435	    -55.06115559	     -2.45933335	    -19.80908913	      0.30887688	     -1.77054021	      3.14494780	      6.75740852	     -3.97299152	     -0.91382968	    -13.18372770	      2.37733450	     -5.01039688	      3.07838411	      0.61727544
      1.39983333	      0.78497738	     -0.84667530	      2.28161853	      0.30257898	      1.01937850	      0.32253745	     22.90800188	      0.96099320	     -2.94650354	    -54.07659211	     -2.12363288	    -19.99929601	      0.17976902	     -2.27274836	      3.06682858	      6.79590128	     -3.79558088	     -0.70994162	    -13.07602951	      2.35747279	     -5.14549928	      3.14051691	      0.50452654
      1.40400000	      0.83968341	     -0.90503769	      2.36108515	      0.30746983	      1.01942967	      0.32242415	     23.12478871	      1.00122123	     -2.96197684	    -53.04651162	     -1.79713934	    -20.13314501	      0.04295114	     -2.71752044	      2.97563538	      6.85195416	     -3.64354543	     -0.50797471	    -12.99739295	      2.33737651	     -5.23555389	      3.21402466	      0.43073482
      1.40816667	      0.84549148	     -0.94835797	      2.44606375	      0.31234213	      1.01937224	      0.32230047	     23.38175904	      1.01973603	     -2.97791409	    -51.98671140	     -1.48081517	    -20.20951089	     -0.02082030	     -3.09743773	      2.90432478	      6.92792057	     -3.51401728	     -0.32335778	    -12.95925289	      2.33024128	     -5.26302336	      3.27419966	      0.39958838
      1.41233333	      0.89469320	     -0.99586986	      2.52573817	      0.31722910	      1.01935383	      0.32219722	     23.56781049	      1.04740690	     -3.00072682	    -50.87391354	     -1.20951420	    -20.30615051	     -0.10022777	     -3.53543955	      2.82407718	      6.98307511	     -3.36170066	     -0.13201508	    -12.90825200	      2.32140607	     -5.35323634	      3.33060942	      0.33324640
      1.41650000	      0.92080138	     -1.02861450	      2.59697186	      0.32211429	      1.01925619	      0.32210804	     23.76462187	      1.06144982	     -3.01349032	    -49.73039402	     -0.98378549	    -20.39804701	     -0.19103810	     -3.94809720	      2.76101957	      7.03474405	     -3.21187110	      0.05581001	    -12.85460281	      2.31173028	     -5.41379496	      3.37059003	      0.26024724
      1.42066667	      0.94727966	     -1.05841725	      2.66909691	      0.32699447	      1.01913230	      0.32202509	     23.94107659	      1.07390039	     -3.02891580	    -48.54375854	     -0.78598627	    -20.48240715	     -0.28197902	     -4.35777739	      2.70074927	      7.08334120	     -3.06874075	      0.24325669	    -12.80663953	      2.30266229	     -5.47354474	      3.41201026	      0.19183033
      1.42483333	      0.95421437	     -1.07561773	      2.73851509	      0.33187604	      1.01894931	      0.32194551	     24.12085334	      1.07231194	     -3.04274981	    -47.32294344	     -0.61484857	    -20.56044890	     -0.37856775	     -4.74601878	      2.65566736	      7.13458380	     -2.92741900	      0.42515480	    -12.76138613	      2.29295919	     -5.51072992	      3.43782323	      0.12065416
      1.42900000	      0.96749980	     -1.09718516	      2.80541363	      0.33675557	      1.01873654	      0.32187152	     24.27308393	      1.07690463	     -3.06142730	    -46.06008212	     -0.47418671	    -20.63361502	     -0.48535833	     -5.13806033	      2.60564397	      7.17500723	     -2.79133444	      0.60676648	    -12.72042243	      2.28200059	     -5.55657662	      3.46438265	      0.04773030
      1.43316667	      0.96515187	     -1.11599878	      2.87008346	      0.34164011	      1.01848504	      0.32181280	     24.42110326	      1.08118738	     -3.07952646	    -44.75615336	     -0.35518643	    -20.69965071	     -0.59056520	     -5.51298032	      2.55879777	      7.21344691	     -2.65715093	      0.78866456	    -12.67927994	      2.27166397	     -5.58329357	      3.48955701	     -0.02090156
      1.43733333	      0.96478723	     -1.12342282	      2.93004115	      0.34651986	      1.01819790	      0.32176291	     24.54855878	      1.07448576	     -3.09912281	    -43.41905932	     -0.26170095	    -20.76914345	     -0.71039453	     -5.88642270	      2.52465024	      7.24079424	     -2.53076113	      0.96810380	    -12.63797097	      2.25948745	     -5.61805379	      3.50177272	     -0.09517332
      1.44150000	      0.93561815	     -1.11735091	      2.98405868	      0.35140043	      1.01783085	      0.32172422	     24.69333627	      1.05353956	     -3.11811978	    -42.05921455	     -0.17241258	    -20.81571948	     -0.81755078	     -6.22934607	      2.50764196	      7.27213418	     -2.40627202	      1.14881923	    -12.60706173	      2.24860690	     -5.61394168	      3.49826200	     -0.15423999
      1.44566667	      0.93305107	     -1.12494453	      3.03772563	      0.35627656	      1.01749034	      0.32170003	     24.77886553	      1.05438352	     -3.13753545	    -40.63798740	     -0.12885463	    -20.87896941	     -0.95503253	     -6.59651288	      2.47259633	      7.28683669	     -2.28786493	      1.32527900	    -12.55720028	      2.23335442	     -5.65289264	      3.50534863	     -0.23312942
